<svg width="94" height="94" viewBox="0 0 94 94" fill="none" xmlns="http://www.w3.org/2000/svg">
<path d="M23.419 2.44141L19.962 5.89844L18.8487 5.33203L17.7549 4.78516L18.7315 3.80859C19.2588 3.28125 19.7081 2.75391 19.7081 2.63672C19.7081 2.38281 17.9112 0.585938 17.6378 0.585938C17.5401 0.585938 16.9346 1.11328 16.2901 1.75781C15.6456 2.40234 15.0792 2.92969 15.0206 2.92969C14.9424 2.92969 14.6885 2.48047 14.4346 1.95313C14.1807 1.40625 13.9073 0.976563 13.8096 0.976563C13.6729 0.976563 11.3292 2.08984 11.1534 2.24609C11.1143 2.28516 11.4854 3.10547 11.9737 4.08203C12.8721 5.85938 12.8721 5.85938 14.2979 6.58203L15.7042 7.30469L14.9229 7.51953C14.2198 7.73438 13.9463 7.69531 12.1885 7.08984C10.3526 6.48438 10.1573 6.34766 8.86822 5.07813C8.10651 4.31641 7.40338 3.71094 7.28619 3.71094C7.03229 3.71094 5.25494 5.52734 5.25494 5.78125C5.25494 5.89844 6.01666 6.73828 6.97369 7.63672C8.45807 9.10156 8.82916 9.33594 9.90338 9.66797L11.1143 10.0195L10.6846 10.4883C10.294 10.8984 10.1182 10.9375 8.24322 10.9375H6.23151V14.0625H11.5635L13.2432 12.4219L14.9229 10.7617L16.9151 10.2734C18.0088 10 18.9854 9.76563 19.0831 9.76563C19.2003 9.76563 19.8643 11.5234 20.587 13.6719C21.3292 15.918 21.9932 17.5781 22.1299 17.5781C22.6768 17.5781 24.7862 16.7383 24.7862 16.5234C24.7862 16.4063 24.1807 14.4922 23.4385 12.2656C22.6963 10.0391 22.1299 8.18359 22.1885 8.14453C22.2276 8.08594 23.1651 8.33984 24.2589 8.71094C26.0948 9.33594 26.4073 9.375 28.7315 9.375H31.2315V6.25H29.044C27.5596 6.25 26.544 6.15234 25.8409 5.91797L24.8057 5.60547L25.6651 4.66797L26.544 3.73047V0H23.419V2.44141Z" fill="url(#paint0_linear_208_50)"/>
<path d="M42.462 0.195318C39.3956 0.546881 34.3174 1.52344 34.0049 1.85547C33.9659 1.89454 34.1221 2.5586 34.3565 3.32032C34.7667 4.66797 34.8057 4.72657 35.294 4.62891C39.7081 3.69141 41.0167 3.47657 43.8878 3.20313L45.294 3.08594L45.1963 47.5L40.8995 49.707C38.5362 50.9375 36.5049 52.0898 36.3682 52.2852C36.2315 52.4805 35.7628 54.707 35.3135 57.2266L34.4737 61.8164L33.2042 63.7109L31.9542 65.625H27.3839L25.1573 62.2656L25.8409 60.1953C26.2315 59.043 26.544 57.9297 26.544 57.7148C26.544 57.5195 25.919 56.3867 25.1573 55.2344L23.751 53.125L24.962 51.3086C25.6065 50.3125 26.1534 49.4336 26.1534 49.3555C26.1534 49.1406 23.8096 47.6367 23.6339 47.7344C23.5557 47.793 23.0089 48.5352 22.462 49.3945L21.4464 50.9375L19.2393 49.4141C18.0284 48.5938 16.8565 47.832 16.6221 47.7734C16.3682 47.6758 15.5284 47.832 14.5128 48.1445C13.5948 48.418 12.8135 48.6328 12.794 48.5938C12.7745 48.5547 12.2471 47.9492 11.6417 47.2266L10.5479 45.8984L9.35651 46.8945C8.28229 47.7734 8.18463 47.9297 8.43854 48.2031C8.59479 48.3984 9.29791 49.2578 10.001 50.1172C10.7237 50.9961 11.4463 51.7773 11.6221 51.8359C12.1495 52.0313 12.6768 51.9727 14.337 51.4648L15.9776 50.957L18.3409 52.5977C20.587 54.1406 20.7628 54.3359 21.9737 56.1328L23.2432 58.0273L22.3057 60.8398L16.1338 60.957L13.751 59.375C12.1885 58.3398 11.212 57.8125 10.8409 57.8125C10.4112 57.8125 9.92291 58.1641 8.69244 59.375C7.18854 60.8203 7.03229 60.9375 6.27057 60.9375C5.29401 60.9375 5.31354 60.9766 4.47369 57.6563C3.49713 53.8281 3.22369 51.4844 3.22369 46.9727C3.20416 42.2852 3.49713 39.9414 4.59088 35.7813C5.19635 33.457 6.83697 28.8477 7.18854 28.4766C7.26666 28.3984 7.83307 28.8281 8.43854 29.4531L9.57135 30.5859L8.4776 30.9375C7.89166 31.1133 7.40338 31.3672 7.40338 31.5039C7.40338 31.9922 8.28229 34.1797 8.4776 34.1797C8.59479 34.1797 9.61041 33.8672 10.7237 33.4961L12.7549 32.8125L13.4581 33.2813L14.1612 33.7305L14.8838 39.5703C15.294 42.7734 15.6456 45.4297 15.6846 45.4492C15.7432 45.5078 18.5753 45.1367 18.6534 45.0586C18.6729 45.0391 18.3995 42.5781 18.0088 39.5898C17.6378 36.6016 17.3838 34.1016 17.4229 34.043C17.4815 33.9844 18.4776 33.7109 19.6495 33.418L21.7589 32.8711L23.6924 33.5352C24.7667 33.8867 25.7432 34.1797 25.8409 34.1797C26.0362 34.1797 26.9346 31.9336 26.9346 31.4648C26.9346 31.3672 26.2315 31.0547 25.3917 30.7617L23.8487 30.2539L24.3174 28.8672C24.5714 28.1055 24.7862 27.3633 24.7862 27.2461C24.7862 26.9531 22.0128 26.0156 21.9151 26.2695C21.8565 26.3672 21.544 27.2461 21.212 28.2227L20.587 29.9609L18.2237 30.5469L15.8799 31.1133L14.6495 30.293L13.4385 29.4531L15.6065 27.168V23.4375H12.4815V24.668C12.4815 25.8398 12.4424 25.9375 11.7003 26.6602L10.919 27.4219L9.90338 26.4648C9.33697 25.918 8.84869 25.4688 8.7901 25.4492C8.57526 25.332 11.3878 21.1523 12.9112 19.2969L13.6729 18.3984L12.5792 17.4414C11.9737 16.9336 11.4073 16.5039 11.3096 16.5039C11.0753 16.5039 9.33697 18.7109 7.98932 20.7031C-0.330995 33.1055 -2.26459 48.3594 2.71588 62.5977C5.93854 71.8164 12.4424 80.1953 20.6846 85.7422C34.8448 95.2539 52.9307 96.3477 68.1456 88.6133C71.6417 86.8359 76.3878 83.5156 78.9659 81.0547C79.0635 80.957 78.712 80.3906 78.126 79.707L77.1104 78.5352L75.6651 79.7852C68.419 86.1133 59.8253 89.6875 49.8448 90.5274L48.419 90.6445V85.9961L48.4385 81.3477L48.8878 81.8945L49.337 82.4609L50.5674 81.6602C52.9503 80.1172 55.7042 79.3945 58.4776 79.5703C59.8253 79.6484 61.544 80.0391 65.8018 81.2305C68.8682 82.0703 71.3878 82.7344 71.4268 82.7148C71.5245 82.6367 72.2667 79.8242 72.2081 79.7656C72.169 79.7266 71.0362 79.4141 69.7081 79.043L67.2667 78.3789L67.1495 73.4375H69.8057C72.3643 73.4375 72.4815 73.418 72.9307 72.9492C73.419 72.4805 73.419 72.4219 73.419 69.043V65.625H70.294V70.3125H67.169V67.6563C67.169 64.4727 66.9737 63.75 65.8604 62.5C64.0049 60.4297 61.251 60.3906 59.2588 62.4023C58.1456 63.4961 57.794 64.3945 57.794 66.0938V67.1875H54.669V64.0625H51.544V66.6992C51.544 69.2578 51.5635 69.375 52.0323 69.8242C52.4815 70.293 52.5987 70.3125 55.1573 70.3125H57.794V76.2891L55.919 76.5234C53.6339 76.8164 51.5049 77.5 49.7471 78.5156L48.419 79.2578V50.8203L49.0245 50.6055C49.8838 50.3125 51.4268 50.332 52.2081 50.6641C52.5596 50.8203 53.4581 51.4844 54.2003 52.168C58.2628 55.8594 63.1846 58.6523 68.3799 60.2344C69.5909 60.6055 70.6065 60.8789 70.6456 60.8398C70.7432 60.7617 71.4659 57.9297 71.4073 57.8906C71.3878 57.8711 70.6651 57.6563 69.8057 57.4023C68.0089 56.8945 65.4503 55.8984 64.1026 55.1953L63.1651 54.707L64.2589 54.6875C67.1885 54.668 70.2549 53.3008 72.7549 50.8789C74.5909 49.1016 75.7042 48.3984 77.4229 47.9492C80.4307 47.168 83.4385 48.0078 85.8018 50.2734C87.4034 51.7969 88.3409 52.4609 89.2979 52.7344C90.0792 52.9492 90.1964 53.0469 90.1182 53.3984C90.0792 53.6133 89.8839 54.5508 89.7081 55.4688C88.4385 62.0703 85.294 68.8477 81.0948 74.0625L80.0401 75.3906L80.8604 76.1133C82.0128 77.1484 82.4229 77.4219 82.5792 77.2266C84.9229 74.6094 88.0089 69.707 89.6104 66.0547C95.1964 53.3594 95.0596 39.4141 89.2589 26.8555C88.5753 25.3711 88.5167 25.1758 88.9073 25.5469C89.1612 25.7813 89.4151 25.9766 89.4932 25.9766C89.6495 25.9766 90.3721 25.2734 91.1729 24.3555L91.6612 23.8086L90.2159 22.3633C89.4151 21.5625 88.6729 20.8984 88.5557 20.8984C88.4385 20.8984 88.0479 21.2109 87.6768 21.582C87.3057 21.9531 86.9542 22.2656 86.876 22.2656C86.7979 22.2656 86.544 21.9727 86.3096 21.6016L85.8995 20.918L86.4073 19.9414C88.3018 16.1719 87.5792 11.7969 84.5714 8.92579C81.6026 6.07422 77.462 5.46876 73.7901 7.32422L72.8135 7.83204L72.1299 7.42188C71.7589 7.18751 71.4659 6.9336 71.4659 6.85547C71.4659 6.77735 71.7784 6.42579 72.1495 6.05469C72.5206 5.6836 72.8331 5.29297 72.8331 5.17579C72.8331 5.0586 72.169 4.31641 71.3682 3.51563L69.9229 2.07032L68.8487 3.04688C68.2823 3.57422 67.794 4.08204 67.7745 4.17969C67.7549 4.29688 67.9503 4.57032 68.1846 4.82422C68.5557 5.21485 68.3604 5.17579 66.876 4.47266C62.5596 2.48047 58.4385 1.25001 53.5557 0.488287C51.2706 0.117193 44.6495 -0.0390569 42.462 0.195318ZM53.8487 3.73047C62.6378 5.15626 70.626 9.12109 77.0128 15.2344C81.9542 19.9609 85.2159 24.8828 87.8526 31.582L88.2432 32.5977L87.169 33.8867C86.5831 34.5898 86.0362 35.1563 85.9581 35.1563C85.88 35.1563 84.8253 34.3359 83.6143 33.3203C81.0948 31.2305 79.6885 30.4102 77.794 29.9609C75.4503 29.4141 72.2862 29.8828 70.3721 31.0547L69.7276 31.4648L68.4971 30.4688C66.544 28.8867 63.0284 27.3438 61.3682 27.3438C60.9385 27.3438 60.919 27.3047 60.919 25.3906V23.4375H63.5557C66.1143 23.4375 66.2315 23.418 66.6807 22.9492C67.1495 22.5 67.169 22.3828 67.169 19.8242V17.1875H64.044V20.3125H60.919V14.0625H57.794V17.1875H54.669V14.0625H51.544V16.6992C51.544 19.2578 51.5635 19.375 52.0323 19.8242C52.4815 20.293 52.5987 20.3125 55.1573 20.3125H57.794V27.2656L56.5831 27.4805C54.1221 27.9102 51.7588 29.1016 49.5909 31.0156L48.419 32.0508V3.10547L49.9424 3.22266C50.7628 3.30079 52.5206 3.51563 53.8487 3.73047ZM80.9385 10.1367C82.2862 10.8008 83.1065 11.6602 83.8096 13.0859C84.1417 13.7695 84.2393 14.3164 84.2393 15.625C84.2589 18.3008 84.1417 18.3203 82.0518 15.918C81.0557 14.8047 79.2393 12.9688 78.0088 11.875C76.7784 10.7813 75.8018 9.84376 75.8604 9.80469C76.0948 9.57032 77.3643 9.39454 78.4581 9.45313C79.3565 9.51172 80.0401 9.70704 80.9385 10.1367ZM61.4268 30.4883C62.9112 30.7617 65.4893 31.9727 66.4854 32.8906L67.2667 33.5938L66.0167 34.7852C64.0635 36.6602 61.8956 37.5 59.044 37.5H57.794V40.6836L59.9034 40.5859C63.6729 40.3906 65.7823 39.375 69.2589 36.0742C72.0909 33.3789 72.9698 32.9297 75.4698 32.9102C77.0518 32.9102 77.3643 32.9688 78.4971 33.5156C79.5909 34.043 83.1846 36.8359 83.3214 37.2656C83.4385 37.5586 78.9659 40.0977 77.5792 40.5078C77.3253 40.5859 77.1299 40.7422 77.1299 40.8398C77.1299 40.957 77.3253 41.6016 77.5792 42.3047C78.087 43.8086 78.0089 43.8086 80.8409 42.4609C83.3214 41.2695 85.6456 39.6875 87.5987 37.832C88.4776 37.0117 89.2393 36.3281 89.2979 36.3281C89.4542 36.3281 90.1964 40.5664 90.4112 42.7539C90.7042 45.7227 90.6651 49.8047 90.3526 49.8047C89.9815 49.8047 89.2784 49.2773 87.7745 47.8711C86.1534 46.3477 84.5323 45.4492 82.4815 44.9219C79.669 44.1992 76.5049 44.5703 73.9659 45.9375C73.3018 46.2891 71.9542 47.3438 70.9581 48.2813C69.0245 50.0977 67.5596 50.9766 65.8409 51.3477C65.2745 51.4648 63.3409 51.5625 61.544 51.5625H58.2628L56.5245 50.0195C55.5479 49.1602 54.2784 48.2227 53.6924 47.9102C52.7159 47.4219 52.4424 47.3633 50.5284 47.3633H48.419V40.957C48.419 34.6094 48.419 34.5703 48.8096 34.8047C49.0245 34.9414 49.2003 35.1172 49.2003 35.1953C49.2003 35.625 49.8057 35.2148 51.2901 33.7695C54.2784 30.8984 57.6768 29.8047 61.4268 30.4883ZM45.294 56.9141V62.8516L43.087 63.3984L40.8799 63.9258L39.3174 62.8906C38.4776 62.3242 37.7549 61.8359 37.7159 61.7969C37.6378 61.7578 38.9854 54.2773 39.0831 54.1992C39.1612 54.1211 45.1768 50.9766 45.2549 50.9766C45.2745 50.9766 45.294 53.6524 45.294 56.9141ZM12.8526 62.5586C14.1221 63.457 14.337 63.6914 14.6299 64.5508C15.3135 66.543 15.3526 66.3281 14.0635 66.9922C12.8917 67.5781 12.8526 67.6172 11.837 69.6484L10.8018 71.7188L9.82526 70.1953C9.29791 69.3359 8.36041 67.6367 7.71588 66.4063L6.58307 64.1602L7.57916 64.0625C8.49713 63.9648 8.69244 63.8477 9.80572 62.7344C10.4698 62.0703 11.0948 61.5234 11.212 61.5234C11.3096 61.543 12.0518 61.9922 12.8526 62.5586ZM24.6495 67.1875L23.4971 68.9258C22.5792 70.3125 22.169 70.7617 21.5049 71.0742C21.0557 71.3086 20.587 71.4844 20.4698 71.4844C20.3526 71.4844 19.5518 70.9375 18.6924 70.2734C17.2667 69.1992 17.1299 69.043 17.462 68.8672C18.1846 68.457 18.7315 67.793 18.7315 67.3242C18.7315 67.0703 18.5167 66.2305 18.2628 65.4688L17.7745 64.0625H22.5792L24.6495 67.1875ZM63.5557 64.5508L64.044 65.0195V77.5L62.4815 77.0703L60.919 76.6602V65.0195L61.4073 64.5508C61.7003 64.2383 62.1104 64.0625 62.4815 64.0625C62.8526 64.0625 63.2628 64.2383 63.5557 64.5508ZM40.5088 67.1875C40.7237 67.1875 41.8956 66.9336 43.1065 66.6211L45.294 66.0547V71.3477L43.3409 73.9649L41.3878 76.5625H38.1065L37.6768 75.293C37.0714 73.4766 36.9932 73.4375 33.3799 73.4375H30.3526L26.7003 69.7852L27.0323 69.2578L27.3643 68.75H30.294C31.8956 68.75 33.3604 68.6719 33.5557 68.5742C33.751 68.457 34.4542 67.5391 35.1182 66.5234L36.3487 64.668L38.2237 65.9375C39.2589 66.6211 40.294 67.1875 40.5088 67.1875ZM16.9932 72.8906C18.9073 74.3359 19.3565 74.7852 21.0948 77.1094L23.0479 79.707L22.2471 80.9766C21.7784 81.6602 21.3292 82.2266 21.212 82.2266C20.8018 82.2266 17.2862 79.1602 15.1378 76.9336L12.8917 74.5899L13.712 72.9297C14.1612 72.0313 14.5909 71.2891 14.669 71.2891C14.7667 71.2891 15.8018 72.0117 16.9932 72.8906ZM34.8253 76.6602L35.3135 78.1641L35.8018 79.6875L35.3135 81.1914L34.8253 82.7148L31.7784 82.832L28.9659 80.7227C26.3682 78.7891 25.9971 78.418 24.4737 76.4258C23.5753 75.2149 22.8331 74.1602 22.8331 74.0625C22.8331 73.9844 23.2237 73.7109 23.712 73.4766C24.2003 73.2422 24.6495 72.9102 24.7276 72.7344C24.8057 72.5 25.3331 72.9102 26.876 74.4531L28.8878 76.4649L34.8253 76.6602ZM45.294 83.6914V90.625L43.6924 90.5078C42.794 90.4297 41.3682 90.2734 40.5088 90.1563L38.9463 89.9414L37.5401 84.4727L38.3409 82.0703L39.1417 79.6875H40.8213C41.7588 79.6875 42.6573 79.6289 42.8331 79.5703C43.0088 79.5117 43.5948 78.8477 44.1417 78.1055C44.6885 77.3633 45.1768 76.7578 45.2159 76.7578C45.2549 76.7578 45.294 79.8828 45.294 83.6914ZM27.3253 83.3984C28.3214 84.1406 29.1807 84.8047 29.2393 84.8633C29.3565 84.9609 28.8878 86.7188 28.7315 86.7188C28.5362 86.7188 24.4932 84.5313 24.2393 84.2773C24.0049 84.082 24.0831 83.8672 24.6299 83.0274C24.9815 82.4805 25.3331 82.0313 25.3917 82.0313C25.4503 82.0313 26.3096 82.6367 27.3253 83.3984ZM35.0987 87.5C35.3135 88.3594 35.4307 89.0625 35.3526 89.0625C35.294 89.0625 34.4542 88.8281 33.5167 88.5352C31.6221 87.9688 31.6221 87.9688 32.1885 86.4649C32.3839 85.9766 32.462 85.9375 33.5557 85.9375H34.7081L35.0987 87.5Z" fill="url(#paint1_linear_208_50)"/>
<path d="M76.544 3.12501H79.669V6.71425e-06H76.544V3.12501Z" fill="url(#paint2_linear_208_50)"/>
<path d="M87.8721 5.17578L86.4073 6.64063L87.5401 7.75391L88.6534 8.88672L90.1182 7.42188C90.919 6.6211 91.5831 5.87891 91.5831 5.76172C91.5831 5.50782 89.7862 3.71094 89.5128 3.71094C89.4151 3.71094 88.6729 4.375 87.8721 5.17578Z" fill="url(#paint3_linear_208_50)"/>
<path d="M90.6065 17.1875H93.7315V14.0625H90.6065V17.1875Z" fill="url(#paint4_linear_208_50)"/>
<path d="M25.8018 16.6992C25.3526 17.6172 24.9815 18.5156 24.9815 18.7109C24.9815 18.9063 25.1964 19.707 25.4503 20.4688L25.9385 21.875H25.0206C24.1417 21.875 24.0245 21.8164 22.8331 20.6055C22.1495 19.9023 21.4854 19.3359 21.3682 19.3359C21.0948 19.3359 19.3174 21.1328 19.3174 21.4062C19.3174 21.5234 20.0987 22.3633 21.0557 23.3008L22.7745 25H27.4424L29.7471 27.3438L29.0049 32.6758C28.5948 35.5859 28.2237 38.1836 28.1651 38.3984C28.087 38.7891 28.2042 38.8281 29.5909 39.043C30.4112 39.1602 31.1143 39.2383 31.1534 39.1992C31.1924 39.1602 31.5831 36.6797 32.0128 33.6914C32.462 30.6836 32.8526 28.2031 32.9112 28.1445C33.0674 27.9688 36.9737 26.7773 37.4034 26.7773C37.6182 26.7578 38.712 27.0703 39.8253 27.4414C41.0362 27.8516 42.2471 28.125 42.794 28.125H43.7315V25H43.087C42.3448 25 39.9815 24.2383 40.0596 24.043C40.0987 23.9648 40.4698 23.3594 40.8995 22.6953C41.5635 21.6797 41.8565 21.4258 42.9893 20.8789C43.712 20.5273 44.3174 20.1562 44.3174 20.0781C44.3174 19.9219 43.1846 17.5781 43.0479 17.4219C43.0088 17.3828 42.7159 17.5 42.3839 17.6562C42.0714 17.832 41.7198 17.9688 41.6221 17.9688C41.544 17.9688 41.2706 17.3438 41.0167 16.6016C40.7823 15.8398 40.4698 15.2344 40.3526 15.2344C39.8839 15.2344 37.6768 16.1133 37.6768 16.3086C37.6768 16.4063 37.9503 17.3047 38.2823 18.3008L38.8682 20.0977L37.6378 21.9141L36.4073 23.7109L34.1026 24.4336L31.8174 25.1563L30.6456 23.8477C29.6495 22.7539 29.3956 22.3047 28.8682 20.7227L28.2432 18.8867L28.8682 17.6172C29.2198 16.9336 29.4737 16.3281 29.4346 16.3086C29.2784 16.1719 26.9151 15.0391 26.7979 15.0391C26.7003 15.0391 26.251 15.7812 25.8018 16.6992Z" fill="url(#paint5_linear_208_50)"/>
<defs>
<linearGradient id="paint0_linear_208_50" x1="93.6827" y1="46.8262" x2="-0.0673246" y2="46.8262" gradientUnits="userSpaceOnUse">
<stop stop-color="#D7395C"/>
<stop offset="1" stop-color="#039BF8"/>
</linearGradient>
<linearGradient id="paint1_linear_208_50" x1="93.6827" y1="46.8262" x2="-0.0673246" y2="46.8262" gradientUnits="userSpaceOnUse">
<stop stop-color="#D7395C"/>
<stop offset="1" stop-color="#039BF8"/>
</linearGradient>
<linearGradient id="paint2_linear_208_50" x1="93.6827" y1="46.8262" x2="-0.0673246" y2="46.8262" gradientUnits="userSpaceOnUse">
<stop stop-color="#D7395C"/>
<stop offset="1" stop-color="#039BF8"/>
</linearGradient>
<linearGradient id="paint3_linear_208_50" x1="93.6827" y1="46.8262" x2="-0.0673246" y2="46.8262" gradientUnits="userSpaceOnUse">
<stop stop-color="#D7395C"/>
<stop offset="1" stop-color="#039BF8"/>
</linearGradient>
<linearGradient id="paint4_linear_208_50" x1="93.6827" y1="46.8262" x2="-0.0673246" y2="46.8262" gradientUnits="userSpaceOnUse">
<stop stop-color="#D7395C"/>
<stop offset="1" stop-color="#039BF8"/>
</linearGradient>
<linearGradient id="paint5_linear_208_50" x1="93.6827" y1="46.8262" x2="-0.0673246" y2="46.8262" gradientUnits="userSpaceOnUse">
<stop stop-color="#D7395C"/>
<stop offset="1" stop-color="#039BF8"/>
</linearGradient>
</defs>
</svg>
