<svg width="28" height="28" viewBox="0 0 28 28" fill="none" xmlns="http://www.w3.org/2000/svg">
<path d="M0 14C0 6.26801 6.26801 0 14 0C21.732 0 28 6.26801 28 14C28 21.732 21.732 28 14 28C6.26801 28 0 21.732 0 14Z" fill="#F68634"/>
<path d="M15.5151 17.1731L17.6073 19.193C18.0359 19.6058 18.0359 20.2764 17.6073 20.6897C17.1792 21.103 16.4852 21.103 16.0575 20.6897L14.0004 18.7049L11.9451 20.6897C11.7308 20.8961 11.45 20.9994 11.1692 20.9994C10.8888 20.9994 10.6085 20.8961 10.3942 20.6897C9.96599 20.2764 9.96599 19.6063 10.3937 19.193L12.4862 17.1731C11.7243 17.0056 10.9896 16.7142 10.3129 16.3044C9.80072 15.9927 9.64688 15.3397 9.96957 14.8449C10.2914 14.3494 10.9681 14.2003 11.4811 14.512C13.0133 15.4423 14.9871 15.4426 16.5201 14.512C17.0331 14.2003 17.7097 14.3494 18.0321 14.8449C18.3548 15.3392 18.2005 15.9927 17.6884 16.3044C17.0116 16.7147 16.2769 17.0056 15.5151 17.1731Z" fill="white"/>
<path fill-rule="evenodd" clip-rule="evenodd" d="M10.248 10.6129C10.248 12.6046 11.9267 14.2248 13.9907 14.2248C16.0551 14.2248 17.7333 12.6046 17.7333 10.6129C17.7333 8.62056 16.0551 7 13.9907 7C11.9267 7 10.248 8.62056 10.248 10.6129ZM15.5403 10.6129C15.5403 9.78805 14.8452 9.1173 13.9907 9.1173C13.1368 9.1173 12.441 9.78805 12.441 10.6129C12.441 11.4371 13.1368 12.1083 13.9907 12.1083C14.8452 12.1083 15.5403 11.4371 15.5403 10.6129Z" fill="white"/>
</svg>
