<svg width="28" height="28" viewBox="0 0 28 28" fill="none" xmlns="http://www.w3.org/2000/svg">
<path d="M14 28C21.732 28 28 21.732 28 14C28 6.26801 21.732 0 14 0C6.26801 0 0 6.26801 0 14C0 21.732 6.26801 28 14 28Z" fill="#25D366"/>
<path fill-rule="evenodd" clip-rule="evenodd" d="M14.4612 21.7889H14.4578C13.0645 21.7885 11.6955 21.4389 10.4795 20.7756L6.06641 21.9333L7.24743 17.6195C6.51892 16.3569 6.13558 14.9248 6.1362 13.4576C6.13803 8.86762 9.87255 5.1333 14.4611 5.1333C16.6881 5.13426 18.7783 6.00122 20.35 7.57479C21.9218 9.14828 22.7869 11.2398 22.786 13.4642C22.7842 18.0531 19.0511 21.7871 14.4612 21.7889ZM10.6843 19.2689L10.937 19.4188C11.9993 20.0492 13.2171 20.3828 14.4587 20.3833H14.4615C18.2752 20.3833 21.3792 17.2793 21.3807 13.464C21.3814 11.6151 20.6624 9.87673 19.356 8.56884C18.0496 7.26095 16.3124 6.54032 14.4642 6.53968C10.6476 6.53968 7.54357 9.6434 7.54206 13.4584C7.54152 14.7658 7.90734 16.0391 8.59997 17.1407L8.76448 17.4025L8.06549 19.9558L10.6843 19.2689ZM18.3701 15.2565C18.5151 15.3266 18.6131 15.3739 18.6549 15.4438C18.7069 15.5305 18.7069 15.947 18.5337 16.4329C18.3603 16.9188 17.5293 17.3623 17.1296 17.422C16.7712 17.4755 16.3177 17.4979 15.8194 17.3395C15.5173 17.2437 15.1299 17.1157 14.6336 16.9014C12.6836 16.0593 11.3657 14.1693 11.1167 13.8121C11.0992 13.7871 11.087 13.7696 11.0802 13.7605L11.0785 13.7583C10.9685 13.6114 10.2309 12.6272 10.2309 11.6087C10.2309 10.6506 10.7015 10.1484 10.9182 9.91719C10.933 9.90135 10.9467 9.88678 10.9589 9.87343C11.1495 9.66518 11.3749 9.61312 11.5136 9.61312C11.6522 9.61312 11.791 9.6144 11.9122 9.62049C11.9272 9.62124 11.9427 9.62115 11.9588 9.62105C12.08 9.62034 12.2312 9.61946 12.3802 9.97756C12.4376 10.1154 12.5215 10.3197 12.61 10.5352C12.789 10.9709 12.9868 11.4524 13.0216 11.522C13.0736 11.6262 13.1082 11.7476 13.0389 11.8865C13.0285 11.9073 13.0189 11.927 13.0097 11.9457C12.9576 12.0521 12.9193 12.1303 12.8309 12.2335C12.7962 12.274 12.7602 12.3178 12.7243 12.3615C12.6528 12.4487 12.5812 12.5358 12.5189 12.5979C12.4148 12.7016 12.3064 12.8142 12.4277 13.0224C12.549 13.2307 12.9665 13.9118 13.5849 14.4634C14.2496 15.0563 14.8273 15.3069 15.1202 15.4339C15.1773 15.4587 15.2237 15.4788 15.2577 15.4958C15.4656 15.6 15.5869 15.5825 15.7083 15.4438C15.8296 15.3049 16.2283 14.8363 16.3669 14.6281C16.5056 14.42 16.6443 14.4546 16.8349 14.524C17.0256 14.5935 18.0483 15.0967 18.2563 15.2008C18.2969 15.2211 18.3349 15.2395 18.3701 15.2565Z" fill="#FDFDFD"/>
</svg>
