<svg width="24" height="24" viewBox="0 0 24 24" fill="none" xmlns="http://www.w3.org/2000/svg">
<path d="M3.19421 13.1954C2.35557 11.7816 2.06187 10.1104 2.36826 8.49539C2.67466 6.88042 3.56007 5.43285 4.85823 4.4245C6.15639 3.41614 7.77801 2.91638 9.41858 3.01904C11.0591 3.1217 12.6058 3.81973 13.7681 4.98206C14.9305 6.14438 15.6285 7.69104 15.7312 9.33161C15.8338 10.9722 15.3341 12.5938 14.3257 13.892C13.3174 15.1901 11.8698 16.0756 10.2549 16.382C8.63989 16.6884 6.96862 16.3947 5.55486 15.556L5.55488 15.556L3.22356 16.2221C3.1271 16.2496 3.02504 16.2509 2.92793 16.2257C2.83082 16.2005 2.74221 16.1499 2.67128 16.0789C2.60035 16.008 2.54967 15.9194 2.52451 15.8223C2.49935 15.7252 2.50061 15.6231 2.52817 15.5267L3.19426 13.1953L3.19421 13.1954Z" stroke="#7C8091" stroke-linecap="round" stroke-linejoin="round"/>
<path d="M8.63086 16.4898C8.96268 17.4318 9.49929 18.2885 10.202 18.9981C10.9048 19.7078 11.7561 20.2528 12.6948 20.5938C13.6335 20.9349 14.6362 21.0635 15.6306 20.9705C16.625 20.8774 17.5864 20.565 18.4455 20.0557L18.4455 20.0556L20.7768 20.7217C20.8732 20.7492 20.9753 20.7505 21.0724 20.7253C21.1695 20.7002 21.2581 20.6495 21.3291 20.5786C21.4 20.5076 21.4507 20.419 21.4758 20.3219C21.501 20.2248 21.4997 20.1228 21.4722 20.0263L20.8061 17.695L20.8061 17.695C21.398 16.6969 21.7226 15.5631 21.7486 14.403C21.7747 13.2429 21.5013 12.0957 20.9549 11.072C20.4085 10.0483 19.6075 9.18275 18.6291 8.55879C17.6508 7.93482 16.5281 7.57353 15.3695 7.50977" stroke="#7C8091" stroke-linecap="round" stroke-linejoin="round"/>
</svg>
