<svg width="40" height="24" viewBox="0 0 40 24" fill="none" xmlns="http://www.w3.org/2000/svg">
<path d="M13.4979 0.0046268C12.1279 -0.00376323 10.7577 0.00319993 9.38763 0.00319993L9.38761 0.0142027C7.8389 0.0142027 6.28918 -0.0164453 4.74161 0.021115C3.48959 0.0710303 2.30562 0.536597 1.42839 1.32394C0.551154 2.11128 0.0458879 3.16187 0.0144356 4.26392C-0.00735851 6.84673 -0.0044752 9.4296 0.0230874 12.0126C0.0384801 12.5343 0.144466 13.051 0.337345 13.5446C0.862353 14.9355 2.56151 16.4544 5.24653 16.4196C7.35085 16.3923 9.45603 16.4108 11.5608 16.4169C12.2488 16.4189 12.3768 16.5708 12.2176 17.1481C11.5095 19.7164 9.95792 21.7637 7.41368 23.2151C7.22072 23.3252 7.16279 23.6181 7.0421 23.826C7.28594 23.8858 7.56471 24.0439 7.76762 23.9883C8.66351 23.772 9.53737 23.4905 10.3801 23.1467C15.6753 20.7823 18.3034 16.8511 18.6976 11.7537C18.8815 9.37446 18.737 6.97487 18.7204 4.58465C18.7019 1.89498 16.5604 0.023355 13.4979 0.0046268Z" fill="#039BF8"/>
<path d="M34.7418 0.00511643C33.352 -0.00524772 31.9619 0.00334078 30.572 0.00334078V0.013202C29.0431 0.013202 27.5133 -0.0160601 25.9855 0.0197339C24.7229 0.062791 23.5266 0.528567 22.6415 1.3218C21.7564 2.11503 21.2493 3.17576 21.224 4.28699C21.2041 6.85236 21.2009 9.41816 21.2335 11.9834C21.2416 12.5228 21.3524 13.0572 21.5613 13.5644C22.314 15.3668 24.1186 16.3958 26.4831 16.4114C28.5878 16.4253 30.6927 16.4108 32.7975 16.4174C33.431 16.4194 33.5864 16.5782 33.4536 17.0697C32.7548 19.6572 31.211 21.7305 28.652 23.199C28.4519 23.3139 28.3751 23.5949 28.241 23.7986C28.4973 23.8663 28.7905 24.0401 29.0035 23.983C29.8808 23.7727 30.7361 23.4969 31.5602 23.1586C36.8856 20.7943 39.5193 16.8498 39.9093 11.7309C40.0905 9.35137 39.9498 6.952 39.9303 4.5618C39.9086 1.90078 37.7673 0.027715 34.7418 0.00511643Z" fill="#039BF8"/>
</svg>
