<svg width="148" height="137" viewBox="0 0 148 137" fill="none" xmlns="http://www.w3.org/2000/svg">
<path d="M22.2045 2.28386V4.56671H24.6717H27.1389V2.28386V0.00100946H24.6717H22.2045V2.28386Z" fill="#57CC99"/>
<path d="M66.768 0.314896C56.7143 1.19951 45.026 4.73793 36.4217 9.53191L32.9985 11.4153L31.4565 10.7019C25.6895 7.99098 19.1514 8.90413 14.4638 13.0418C9.71448 17.208 8.57341 23.6285 11.5649 29.1074L12.3359 30.5341L10.3004 33.7016C1.2027 47.6841 -2.06631 65.4332 1.41858 81.6129C2.77553 87.9193 4.74927 93.284 7.92577 99.2194C9.036 101.303 10.0846 103.015 10.2696 103.015C10.4546 103.015 11.4415 102.558 12.4901 101.987L14.3713 100.96L12.3667 97.1934C8.94348 90.887 6.84638 84.8089 5.64363 77.8177C4.90347 73.3661 4.90347 63.8638 5.64363 59.3551C8.04913 45.0873 15.0806 32.4175 25.9362 22.6583C29.5136 19.4623 31.9191 17.6646 36.2367 15.0678C42.6513 11.1584 49.3127 8.44756 56.5909 6.70688C63.4373 5.08035 66.6138 4.7094 74.0154 4.7094C81.2936 4.7094 84.5626 5.08035 91.1006 6.59274C94.678 7.42027 100.414 9.24656 100.969 9.70312C101.124 9.8458 100.137 11.2155 98.718 12.8706L96.22 15.7812V14.2688C96.22 13.4413 96.0658 12.2428 95.8499 11.5865C95.3565 10.017 92.7968 7.64856 91.1006 7.19199C90.2063 6.9637 86.598 6.84956 78.9498 6.84956C71.3015 6.84956 67.6932 6.9637 66.7989 7.19199C65.1027 7.64856 62.543 10.017 62.0496 11.5865C61.186 14.2688 61.8028 16.409 63.9925 18.4065C65.8737 20.1757 67.1073 20.5467 71.0548 20.5467H74.0154V22.1447C74.0154 24.5417 74.6013 25.9399 76.1742 27.4238C76.9452 28.1371 77.8395 28.8791 78.1788 29.0503C78.7647 29.3356 78.7647 29.4212 77.6545 31.5043C75.8041 34.9286 76.1433 35.8418 79.5665 36.869L81.7253 37.4968L79.5357 39.5514C77.5003 41.4348 77.3461 41.6916 77.747 42.1481C78.518 43.0898 80.4301 44.802 80.7076 44.802C80.8618 44.802 82.743 43.1469 84.9018 41.1494C88.14 38.1246 88.8185 37.3256 88.8185 36.6408C88.8185 35.214 88.0783 34.6147 85.2719 33.7872C83.8224 33.3306 82.6505 32.8741 82.6505 32.7599C82.6505 32.6172 82.9898 31.8753 83.4215 31.1049L84.1925 29.6781H87.5849H90.9773L93.2902 33.9584L95.6032 38.2388L89.0035 43.2896C85.3644 46.0861 82.373 48.426 82.373 48.5116C82.373 48.5972 83.0823 49.3962 83.9766 50.2808L85.5803 51.9359L92.9818 46.2002C97.0527 43.0613 100.568 40.2648 100.784 40.008C101.463 39.1804 101.185 38.2673 98.8722 34.0155L96.5901 29.7637L98.1629 29.3927C99.3657 29.1074 100.106 28.6793 101.309 27.5664C104.146 24.9412 104.423 21.6025 102.049 18.7775C101.555 18.2067 101.154 17.636 101.154 17.5219C101.154 17.2365 110.437 6.56421 110.715 6.56421C110.838 6.56421 111.301 7.07785 111.763 7.67709C113.12 9.47484 116.574 12.3855 119.226 13.9549C122.033 15.6385 125.579 16.9797 128.972 17.6646L131.347 18.1211L123.976 21.9449C119.905 24.028 116.42 25.9684 116.266 26.2538C115.711 27.224 115.927 27.9374 117.993 31.7326C119.658 34.7859 119.936 35.5279 119.597 35.8132C119.381 36.013 113.305 39.3517 106.089 43.2325C98.8722 47.0848 92.8893 50.3664 92.766 50.452C92.6734 50.5662 93.136 51.5364 93.8145 52.5922C94.9864 54.447 95.0789 54.5326 95.6957 54.1331C96.0658 53.9048 102.758 50.3093 110.561 46.1146C118.363 41.8913 124.994 38.2102 125.302 37.8963C126.165 36.9832 125.95 36.1557 123.822 32.2463C122.711 30.2202 121.817 28.4796 121.817 28.4225C121.817 28.3369 122.711 27.8233 123.822 27.2525L125.826 26.1967L126.443 26.8816C129.99 30.6768 133.968 36.3554 136.188 40.6643L137.514 43.2325L126.967 43.3752C115.032 43.5464 115.094 43.5179 112.904 45.8292C110.221 48.6543 110.375 52.2212 113.336 54.9606C114.539 56.0735 115.279 56.5016 116.482 56.7869L118.085 57.1579L117.499 58.2137C116.235 60.5251 114.786 61.3241 107.415 63.8923C103.622 65.2049 100.538 66.432 100.538 66.6032C100.538 67.2024 101.925 70.484 102.172 70.484C102.943 70.484 116.019 65.7186 117.284 65.0052C119.843 63.4928 121.879 61.0102 122.742 58.2708L123.143 57.0723H125.919H128.694L128.54 59.0127C128.232 62.9792 126.289 65.4618 120.954 68.7434L117.623 70.7694H111.332H105.04L99.3965 75.9914C94.3696 80.6142 93.7528 81.299 93.7528 82.1266C93.7528 83.639 94.8939 84.4665 96.991 84.4665H98.6872V89.66V94.882L97.2686 95.9378C94.7397 97.8212 92.4884 97.7641 89.9904 95.681C87.7699 93.8547 86.0737 93.1984 83.4215 93.1984C80.6459 93.1699 78.8572 93.9403 75.1565 96.6797L72.4734 98.6772L73.9229 100.361C74.7247 101.274 75.4032 102.073 75.434 102.13C75.4957 102.159 76.8835 101.245 78.5488 100.075C82.8972 96.9936 84.0692 96.9366 87.554 99.676C89.4969 101.217 91.3473 101.873 93.7837 101.873C96.0041 101.873 97.7928 101.303 99.7358 99.9043C101.802 98.449 102.45 98.1636 103.622 98.1636C104.793 98.1636 105.441 98.449 107.507 99.9043C109.481 101.303 111.239 101.873 113.49 101.873C115.742 101.873 117.499 101.303 119.473 99.9043C120.337 99.305 121.354 98.6487 121.725 98.4775C122.588 98.078 124.13 98.078 124.994 98.4775C126.073 99.0197 131.994 103.043 131.994 103.243C131.994 103.471 128.108 108.294 126.536 110.006L125.579 111.062L123.575 110.149C119.874 108.465 116.42 108.665 112.658 110.805C110.776 111.889 110.375 112.003 108.556 112.003C106.798 112.003 106.335 111.889 104.917 111.062C102.912 109.863 100.939 109.292 98.6872 109.292C95.8499 109.292 94.0921 109.949 90.5455 112.374L87.3382 114.6L88.6951 116.255C89.4353 117.168 90.1137 117.996 90.1754 118.081C90.2679 118.139 91.6557 117.282 93.2902 116.198C97.3303 113.43 99.304 113.173 102.388 115C104.331 116.141 106.335 116.712 108.525 116.712C110.9 116.712 112.349 116.284 114.816 114.943C117.284 113.573 118.98 113.287 120.738 114.001L121.971 114.486L120.121 116.055C115.896 119.651 108.926 123.931 103.622 126.214C97.4845 128.839 91.0081 130.666 84.0383 131.722C79.8749 132.349 68.7726 132.435 64.9177 131.864C57.8862 130.837 52.5201 129.439 46.8456 127.213L43.0214 125.7L45.3344 125.501C49.4361 125.101 52.4276 123.817 54.9873 121.306C60.3534 116.113 60.5693 108.008 55.5115 102.901L54.3396 101.702L54.2163 94.1686L54.1237 86.6067L53.0752 84.8089C51.9033 82.84 50.608 81.67 48.4184 80.6998C46.383 79.7866 42.3738 79.8152 40.2458 80.7569C38.3029 81.6415 36.4217 83.3536 35.4657 85.1799C34.7255 86.5781 34.6947 86.7779 34.6022 94.1686L34.5096 101.702L33.3069 102.901C29.4211 106.81 28.5267 113.088 31.179 117.91L31.8266 119.08L30.5005 118.11C28.0641 116.369 22.7905 111.49 20.4467 108.779C19.1514 107.352 18.0104 106.154 17.9179 106.154C17.7328 106.154 14.7105 108.151 14.2479 108.551C13.6311 109.15 23.0681 118.538 27.6015 121.848C42.9906 133.063 61.6178 138.285 80.6459 136.687C90.5147 135.859 101.771 132.635 110.221 128.212C139.056 113.116 153.613 82.3263 145.995 52.6778C143.497 43.0327 138.471 33.4162 132.025 25.9684C131.161 24.9697 130.452 24.0851 130.452 23.9995C130.452 23.9139 133.166 22.43 136.466 20.7464C139.766 19.0343 142.634 17.4077 142.788 17.1224C143.374 16.1236 143.096 15.239 141.647 13.4128C135.14 5.08035 124.223 0.029541 112.781 0.00100708C109.635 0.00100708 109.913 -0.170212 106.551 3.82478C105.349 5.25157 104.547 5.96495 104.238 5.87935C103.992 5.82228 102.326 5.22304 100.538 4.59525C90.1137 0.828537 78.1788 -0.683853 66.768 0.314896ZM122.65 6.05057C126.998 7.3632 131.717 10.0456 134.461 12.7279L135.541 13.7837L133.135 13.584C127.091 13.1559 121.91 10.9016 117.623 6.90663C116.543 5.90788 115.649 4.96622 115.649 4.85207C115.649 4.48111 119.843 5.19449 122.65 6.05057ZM90.5147 12.1287C91.2548 12.785 91.2857 13.0133 91.2857 15.981C91.2857 18.9487 91.3165 19.177 92.0566 19.8333C92.7043 20.4611 93.0744 20.5467 94.9864 20.5467C96.8985 20.5467 97.2686 20.6323 97.9162 21.2601C98.4096 21.6881 98.6872 22.2873 98.6872 22.8295C98.6872 23.3717 98.4096 23.9709 97.9162 24.399C97.1761 25.1124 97.0835 25.1124 91.9025 25.1124H86.6597L87.5849 23.4002C88.0783 22.4586 88.5101 21.6596 88.5101 21.6025C88.5101 21.4313 84.1925 19.5765 84.0692 19.7191C84.0075 19.7762 83.2982 21.0318 82.5272 22.4586C81.7562 23.9139 80.9543 25.1124 80.7693 25.1124C80.6151 25.1124 80.1217 24.7985 79.7207 24.399C78.9806 23.7427 78.9498 23.5144 78.9498 20.5467C78.9498 17.579 78.9189 17.3507 78.1788 16.6944C77.4694 16.0095 77.3152 15.981 72.7818 15.981C68.2484 15.981 68.0942 15.9524 67.3848 15.2676C66.8914 14.8395 66.6138 14.2403 66.6138 13.6981C66.6138 13.1559 66.8914 12.5567 67.3848 12.1287L68.125 11.4153H78.9498H89.7745L90.5147 12.1287ZM27.8483 14.1547C28.28 14.383 27.8483 14.8681 24.9802 17.208C23.1298 18.7204 20.2308 21.4027 18.5963 23.1149C15.2348 26.6533 15.1423 26.6533 14.8647 23.5144C14.5255 19.3767 17.2085 15.6385 21.5878 14.1547C23.0681 13.6696 26.8922 13.6696 27.8483 14.1547ZM139.704 48.6828C140.228 49.9384 141.554 54.875 141.986 57.1579L142.387 59.3551H140.321H138.255L138.039 61.4097C137.607 65.8042 136.096 69.7136 133.259 73.623C132.303 74.9641 131.532 76.1341 131.532 76.2482C131.532 76.3624 132.364 77.0187 133.382 77.7321L135.232 78.9877L136.651 77.1899C139.334 73.7942 141.832 68.6292 142.325 65.4903C142.726 63.1789 143.096 64.463 143.096 68.03C143.096 75.1924 141.894 82.098 139.519 88.7183C137.977 93.0272 134.955 99.1338 134.461 98.9626C134.307 98.9341 132.827 97.9924 131.223 96.908L128.293 94.9391V89.6885V84.4665H129.99C132.087 84.4665 133.228 83.639 133.228 82.1551C133.228 81.3561 132.642 80.6713 128.54 76.8475C124.747 73.3091 123.914 72.3959 124.315 72.1962C125.98 71.3116 128.756 69.1429 129.866 67.8587C132.148 65.2049 133.536 61.7521 133.536 58.6988V57.0723H135.849H138.162V54.7894V52.5066H127.831H117.469L116.728 51.7932C116.235 51.3652 115.957 50.7659 115.957 50.2237C115.957 49.6815 116.235 49.0823 116.728 48.6543L117.469 47.9409H128.448H139.396L139.704 48.6828ZM122.28 77.6179L124.747 79.9008H120.892H117.037L114.57 77.6179L112.103 75.3351H115.957H119.812L122.28 77.6179ZM108.093 78.1887L109.913 79.9008H106.089H102.265L104.084 78.1887C105.102 77.247 105.996 76.4765 106.089 76.4765C106.181 76.4765 107.076 77.247 108.093 78.1887ZM47.1231 85.237C47.5549 85.5223 48.2025 86.1501 48.5417 86.5781C49.1585 87.3201 49.1894 87.8337 49.3436 95.6239L49.4978 103.871L50.9164 105.069C51.7182 105.754 52.736 107.01 53.2294 107.866C53.9695 109.207 54.1237 109.778 54.1237 111.718C54.1237 113.744 54.0004 114.229 53.106 115.913C52.0266 117.967 50.7005 119.166 48.4184 120.193C47.339 120.678 46.4446 120.821 44.4092 120.821C42.0037 120.849 41.6336 120.764 39.8449 119.879C37.8095 118.852 36.6376 117.711 35.4348 115.57C34.8489 114.515 34.7255 113.858 34.7255 111.861C34.7255 108.864 35.4657 107.295 37.8403 105.069L39.4748 103.585V95.8807C39.4748 91.1438 39.5982 87.9193 39.8141 87.4057C40.2458 86.3498 41.2636 85.3511 42.4046 84.866C43.6382 84.3238 46.0746 84.5236 47.1231 85.237ZM113.49 90.9155V97.3646L112.534 97.1934C112.01 97.1078 110.746 96.4515 109.728 95.7381C108.032 94.5681 105.534 93.5979 104.177 93.5979C103.652 93.5979 103.622 93.2555 103.622 89.0322V84.4665H108.556H113.49V90.9155ZM123.359 88.9466V93.4552L121.416 93.9118C120.368 94.1686 119.257 94.454 118.98 94.5681C118.455 94.7964 118.425 94.454 118.425 89.6314V84.4665H120.892H123.359V88.9466Z" fill="#57CC99"/>
<path d="M41.9422 98.3348V107.666L40.8936 108.75C38.9816 110.691 39.0433 113.23 40.9862 115.028C42.9907 116.883 45.828 116.883 47.8326 115.028C49.7755 113.23 49.8372 110.691 47.9251 108.75L46.8766 107.666V98.3348V89.0322H44.4094H41.9422V98.3348Z" fill="#57CC99"/>
<path d="M7.30903 6.79251C6.50719 7.53443 5.85956 8.27636 5.85956 8.44757C5.85956 8.59025 6.90811 9.67461 8.17254 10.8446L10.4855 12.9847L12.2434 11.3297L14.0321 9.70314L11.7191 7.56297C10.4547 6.39301 9.28277 5.4228 9.09773 5.4228C8.9127 5.4228 8.11086 6.05058 7.30903 6.79251Z" fill="#57CC99"/>
<path d="M0 22.8295V25.1124H2.46718H4.93436V22.8295V20.5467H2.46718H0V22.8295Z" fill="#57CC99"/>
<path d="M51.8109 38.838V47.998L48.2027 47.8838C43.8543 47.7411 42.7132 47.3702 39.8143 45.0303C36.3294 42.2052 32.9678 41.0923 28.0026 41.0923C22.4515 41.0923 20.3852 41.8057 14.7415 45.6866L10.8557 48.3975L12.2127 50.0525C12.9528 50.9657 13.6313 51.7932 13.7238 51.8788C13.7855 51.9644 15.4817 50.8801 17.4554 49.5103C22.5748 45.9719 23.0374 45.8007 27.9101 45.8007C32.6594 45.8007 33.5846 46.0861 36.6686 48.5687C37.748 49.4533 39.3517 50.5091 40.246 50.9086C43.4842 52.3639 44.7178 52.5066 54.8024 52.5066H64.1468V50.2237V47.9409H60.4461H56.7453V45.658V43.3752H60.9087C64.9487 43.3752 65.1337 43.3467 65.843 42.6618C66.5832 42.0055 66.614 41.8343 66.614 38.0961V34.2438H64.1468H61.6796V36.5266V38.8095H59.2125H56.7453V34.2438V29.6781H54.2781H51.8109V38.838Z" fill="#57CC99"/>
<path d="M76.4827 54.7894C75.9276 55.8738 75.4958 56.8154 75.5883 56.901C75.8659 57.1293 80.2451 59.0983 80.3377 59.0127C80.5535 58.7844 82.3422 55.3601 82.3422 55.1318C82.3422 54.9606 77.9938 52.7919 77.6238 52.7919C77.5621 52.7919 77.0687 53.6765 76.4827 54.7894Z" fill="#57CC99"/>
<path d="M86.3513 59.3551V61.6379H88.8185H91.2857V59.3551V57.0722H88.8185H86.3513V59.3551Z" fill="#57CC99"/>
<path d="M25.1961 64.406C23.3149 67.9444 23.2841 68.087 23.2841 70.3128C23.2841 72.4245 23.4074 72.824 24.456 74.7073C26.0905 77.7321 26.0288 78.7023 23.9317 82.6688L22.2664 85.8077L24.3943 86.7494C25.5662 87.2915 26.5531 87.6625 26.6456 87.5769C26.7073 87.5198 27.5708 85.9789 28.5577 84.1811L30.3772 80.8995V78.1887C30.3772 75.6205 30.3155 75.3636 29.2361 73.3376C28.5268 72.0535 28.0642 70.7694 28.0642 70.1702C28.0642 69.5138 28.6502 68.0014 29.7604 65.9183C30.7165 64.1491 31.4258 62.6653 31.3949 62.6367C31.1791 62.4655 27.4474 60.7819 27.2932 60.7819C27.2007 60.7819 26.2447 62.4085 25.1961 64.406Z" fill="#57CC99"/>
<path d="M56.591 61.695C55.5733 62.1801 54.7098 62.6081 54.6481 62.6367C54.6173 62.6652 55.3266 64.1491 56.2826 65.9183C58.3489 69.8562 58.4106 70.5696 56.8377 73.4231C55.7584 75.335 55.6658 75.6489 55.6658 78.0459C55.6658 80.6141 55.6658 80.6427 57.4854 84.124C58.5031 86.0359 59.4283 87.6053 59.5825 87.6053C59.7984 87.6053 63.4991 85.9788 63.7767 85.7505C63.8075 85.722 63.0982 84.2381 62.1422 82.4689C60.0759 78.531 60.0142 77.8462 61.6179 74.8214C62.6665 72.7954 62.759 72.4244 62.759 70.1986C62.759 67.8016 62.7281 67.6875 60.9394 64.2632C59.9217 62.3513 58.9657 60.7818 58.7807 60.7818C58.5956 60.8104 57.6087 61.2099 56.591 61.695Z" fill="#57CC99"/>
<path d="M12.8602 66.6888C10.979 70.2272 10.9481 70.3699 10.9481 72.5957C10.9481 74.7073 11.0715 75.1068 12.12 76.9902C13.7546 80.0149 13.6929 80.9851 11.5958 84.9516L9.93042 88.0905L12.0584 89.0322C13.2303 89.5744 14.2171 89.9453 14.3097 89.8597C14.3713 89.8027 15.2349 88.2617 16.2217 86.464L18.0413 83.1824V80.4715C18.0413 77.9033 17.9796 77.6465 16.9002 75.6204C16.1909 74.3363 15.7283 73.0522 15.7283 72.453C15.7283 71.7967 16.3143 70.2843 17.4245 68.2012C18.3805 66.432 19.0898 64.9481 19.059 64.9196C18.8431 64.7484 15.1115 63.0648 14.9573 63.0648C14.8648 63.0648 13.9087 64.6913 12.8602 66.6888Z" fill="#57CC99"/>
<path d="M68.9267 63.9779C67.909 64.463 67.0455 64.891 66.9838 64.9196C66.953 64.9481 67.6623 66.432 68.6183 68.2012C70.6846 72.1391 70.7463 72.8525 69.1734 75.706C68.094 77.6179 68.0015 77.9318 68.0015 80.3288C68.0015 82.897 68.0015 82.9255 69.8211 86.4069C70.8388 88.3188 71.764 89.8882 71.9182 89.8882C72.1341 89.8882 75.8348 88.2617 76.1124 88.0334C76.1432 88.0049 75.4339 86.521 74.4779 84.7518C72.4116 80.8139 72.3499 80.1291 73.9536 77.1043C75.0022 75.0782 75.0947 74.7073 75.0947 72.4815C75.0947 70.0845 75.0638 69.9704 73.2751 66.5461C72.2574 64.6342 71.3014 63.0647 71.1163 63.0647C70.9313 63.0933 69.9444 63.4928 68.9267 63.9779Z" fill="#57CC99"/>
<path d="M105.009 101.788C103.837 102.33 102.789 102.843 102.727 102.901C102.573 103.015 104.578 107.01 104.763 107.01C104.917 107.01 109.296 104.984 109.45 104.841C109.635 104.698 107.569 100.732 107.353 100.732C107.261 100.76 106.212 101.217 105.009 101.788Z" fill="#57CC99"/>
<path d="M78.9498 107.295V109.578H81.417H83.8842V107.295V105.012H81.417H78.9498V107.295Z" fill="#57CC99"/>
<path d="M77.4385 116.911C76.7601 117.425 74.0153 124.53 74.0153 125.729C74.0153 126.956 75.0022 127.527 79.2581 128.839C81.5402 129.553 83.7298 130.123 84.1616 130.123C84.7167 130.123 85.7653 129.324 88.1091 127.184C91.4089 124.131 91.779 123.503 90.9772 122.105C90.5763 121.449 79.8749 116.426 78.8263 116.426C78.4254 116.426 77.8086 116.655 77.4385 116.911ZM82.6813 123.018L84.5625 123.874L83.884 124.559L83.2056 125.215L81.4169 124.673L79.6282 124.102L79.9674 123.104C80.1524 122.59 80.3992 122.133 80.5534 122.133C80.7075 122.133 81.6636 122.533 82.6813 123.018Z" fill="#57CC99"/>
<path d="M98.6873 120.992C98.1322 122.076 97.7004 123.018 97.7929 123.104C98.0705 123.332 102.45 125.301 102.542 125.215C102.758 124.987 104.547 121.563 104.547 121.335C104.547 121.163 100.198 118.995 99.8284 118.995C99.7667 118.995 99.2732 119.879 98.6873 120.992Z" fill="#57CC99"/>
</svg>
