<svg width="44" height="41" viewBox="0 0 44 41" fill="none" xmlns="http://www.w3.org/2000/svg">
<path d="M6.60116 0.678967V1.35772H7.33472H8.06828V0.678967V0.000214696H7.33472H6.60116V0.678967Z" fill="#838383"/>
<path d="M19.8505 0.0936432C16.8616 0.356636 13.3867 1.4086 10.8287 2.83383L9.81097 3.39375L9.35254 3.18166C7.63802 2.37572 5.69428 2.64719 4.30066 3.87731C2.8887 5.11591 2.54947 7.02471 3.43882 8.65355L3.66803 9.07773L3.06291 10.0194C0.35818 14.1763 -0.613687 19.4531 0.42236 24.2633C0.825777 26.1382 1.41256 27.7331 2.35693 29.4976C2.68699 30.1169 2.99873 30.6259 3.05374 30.6259C3.10875 30.6259 3.40214 30.4902 3.71387 30.3205L4.27316 30.0151L3.6772 28.8953C2.65949 27.0204 2.03603 25.2134 1.67845 23.135C1.45841 21.8115 1.45841 18.9865 1.67845 17.6461C2.3936 13.4043 4.48403 9.63764 7.71137 6.73627C8.77492 5.78611 9.49007 5.25164 10.7737 4.47964C12.6807 3.31739 14.6611 2.51146 16.8249 1.99396C18.8603 1.5104 19.8047 1.40011 22.0052 1.40011C24.1689 1.40011 25.1408 1.5104 27.0845 1.96003C28.1481 2.20605 29.8534 2.749 30.0185 2.88474C30.0643 2.92715 29.7709 3.33436 29.3492 3.82641L28.6065 4.69173V4.2421C28.6065 3.99608 28.5607 3.63977 28.4965 3.44465C28.3498 2.97805 27.5888 2.27392 27.0845 2.13818C26.8186 2.07031 25.7459 2.03638 23.4721 2.03638C21.1983 2.03638 20.1256 2.07031 19.8597 2.13818C19.3554 2.27392 18.5944 2.97805 18.4478 3.44465C18.191 4.2421 18.3744 4.87837 19.0254 5.47222C19.5847 5.9982 19.9514 6.10848 21.125 6.10848H22.0052V6.58356C22.0052 7.29618 22.1794 7.71188 22.647 8.15302C22.8762 8.36511 23.1421 8.58568 23.2429 8.63658C23.4171 8.72142 23.4171 8.74687 23.087 9.36617C22.5369 10.3842 22.6378 10.6557 23.6555 10.9611L24.2973 11.1477L23.6463 11.7585C23.0412 12.3184 22.9954 12.3948 23.1145 12.5305C23.3438 12.8105 23.9122 13.3195 23.9947 13.3195C24.0406 13.3195 24.5999 12.8275 25.2417 12.2336C26.2044 11.3344 26.4061 11.0968 26.4061 10.8932C26.4061 10.469 26.186 10.2909 25.3517 10.0449C24.9208 9.90911 24.5724 9.77338 24.5724 9.73944C24.5724 9.69703 24.6732 9.47645 24.8016 9.2474L25.0308 8.82322H26.0393H27.0479L27.7355 10.0958L28.4231 11.3683L26.4611 12.8699C25.3792 13.7013 24.4898 14.3969 24.4898 14.4224C24.4898 14.4478 24.7007 14.6854 24.9666 14.9483L25.4434 15.4404L27.6438 13.7352C28.8541 12.802 29.8993 11.9706 29.9635 11.8943C30.1652 11.6482 30.0827 11.3768 29.395 10.1127L28.7165 8.84867L29.1841 8.73838C29.5417 8.65355 29.7618 8.52629 30.1193 8.19544C30.9628 7.41495 31.0454 6.42237 30.3394 5.5825C30.1927 5.41283 30.0735 5.24316 30.0735 5.20923C30.0735 5.12439 32.8332 1.95154 32.9157 1.95154C32.9524 1.95154 33.0899 2.10425 33.2275 2.2824C33.6309 2.81686 34.6578 3.68219 35.4463 4.14878C36.2806 4.64931 37.335 5.04804 38.3435 5.25164L39.0495 5.38738L36.8582 6.52418C35.648 7.14348 34.6119 7.72036 34.5661 7.80519C34.4011 8.09364 34.4652 8.30573 35.0795 9.43404C35.5746 10.3418 35.6571 10.5623 35.5563 10.6472C35.4921 10.7066 33.6859 11.6991 31.5405 12.8529C29.395 13.9982 27.6163 14.9738 27.5796 14.9992C27.5521 15.0332 27.6897 15.3216 27.8914 15.6355C28.2398 16.1869 28.2673 16.2124 28.4507 16.0936C28.5607 16.0258 30.5503 14.9568 32.8699 13.7097C35.1895 12.4542 37.1608 11.3598 37.2525 11.2665C37.5092 10.995 37.445 10.749 36.8124 9.58674C36.4823 8.98441 36.2164 8.46691 36.2164 8.44994C36.2164 8.42449 36.4823 8.27179 36.8124 8.10212L37.4083 7.78823L37.5917 7.99183C38.6461 9.12014 39.8288 10.8084 40.489 12.0894L40.8832 12.8529L37.7476 12.8953C34.1993 12.9462 34.2177 12.9377 33.5667 13.6249C32.769 14.4648 32.8149 15.5252 33.6951 16.3396C34.0526 16.6705 34.2727 16.7978 34.6303 16.8826L35.107 16.9929L34.9328 17.3068C34.5569 17.9939 34.126 18.2315 31.9347 18.995C30.807 19.3852 29.8901 19.75 29.8901 19.8009C29.8901 19.9791 30.3027 20.9547 30.3761 20.9547C30.6053 20.9547 34.4927 19.5379 34.8686 19.3259C35.6296 18.8762 36.2348 18.1382 36.4915 17.3237L36.6107 16.9674H37.4358H38.261L38.2152 17.5443C38.1235 18.7235 37.5459 19.4616 35.9597 20.4372L34.9695 21.0395H33.0991H31.2287L29.5509 22.592C28.0564 23.9664 27.873 24.17 27.873 24.416C27.873 24.8656 28.2123 25.1116 28.8357 25.1116H29.34V26.6556V28.2081L28.9182 28.522C28.1664 29.0819 27.4971 29.065 26.7545 28.4457C26.0943 27.9027 25.5901 27.7076 24.8016 27.7076C23.9764 27.6991 23.4446 27.9282 22.3444 28.7426L21.5467 29.3364L21.9776 29.837C22.216 30.1085 22.4177 30.346 22.4269 30.363C22.4452 30.3714 22.8578 30.1 23.3529 29.7521C24.6457 28.8359 24.9941 28.819 26.0302 29.6334C26.6078 30.0915 27.1579 30.2866 27.8822 30.2866C28.5423 30.2866 29.0741 30.1169 29.6517 29.7012C30.266 29.2686 30.4586 29.1837 30.807 29.1837C31.1554 29.1837 31.3479 29.2686 31.9622 29.7012C32.549 30.1169 33.0716 30.2866 33.7409 30.2866C34.4102 30.2866 34.9328 30.1169 35.5196 29.7012C35.7763 29.5231 36.0789 29.328 36.1889 29.2771C36.4456 29.1583 36.9041 29.1583 37.1608 29.2771C37.4817 29.4383 39.2421 30.6344 39.2421 30.6938C39.2421 30.7617 38.0868 32.1954 37.6192 32.7044L37.335 33.0183L36.739 32.7468C35.6388 32.2463 34.6119 32.3057 33.4934 32.942C32.9341 33.2643 32.8149 33.2983 32.2739 33.2983C31.7513 33.2983 31.6138 33.2643 31.1921 33.0183C30.5961 32.662 30.0093 32.4923 29.34 32.4923C28.4965 32.4923 27.9739 32.6875 26.9195 33.4086L25.966 34.0703L26.3694 34.5623C26.5894 34.8338 26.7911 35.0798 26.8095 35.1053C26.837 35.1222 27.2496 34.8677 27.7355 34.5454C28.9366 33.7224 29.5234 33.6461 30.4402 34.189C31.0179 34.5284 31.6138 34.6981 32.2648 34.6981C32.9708 34.6981 33.4017 34.5708 34.1352 34.1721C34.8686 33.7649 35.3729 33.68 35.8955 33.8921L36.2623 34.0363L35.7122 34.5029C34.4561 35.5719 32.384 36.8444 30.807 37.5231C28.9824 38.3036 27.057 38.8465 24.9849 39.1604C23.7472 39.347 20.4465 39.3725 19.3004 39.2028C17.21 38.8974 15.6147 38.4817 13.9277 37.82L12.7907 37.3704L13.4784 37.311C14.6978 37.1922 15.5872 36.8105 16.3482 36.0639C17.9435 34.5199 18.0077 32.1106 16.504 30.592L16.1556 30.2357L16.1189 27.996L16.0914 25.7479L15.7797 25.2134C15.4313 24.6281 15.0462 24.2803 14.3952 23.9918C13.7901 23.7203 12.5982 23.7288 11.9656 24.0088C11.388 24.2718 10.8287 24.7808 10.5445 25.3237C10.3244 25.7394 10.3152 25.7988 10.2877 27.996L10.2602 30.2357L9.90265 30.592C8.74741 31.7543 8.48153 33.6206 9.27002 35.0544L9.46256 35.4022L9.06831 35.1137C8.344 34.5963 6.77617 33.1456 6.07936 32.3396C5.69428 31.9155 5.35505 31.5591 5.32754 31.5591C5.27253 31.5591 4.37401 32.153 4.23648 32.2718C4.05311 32.4499 6.85869 35.241 8.20647 36.2251C12.7816 39.5591 18.3194 41.1116 23.9764 40.6365C26.9103 40.3905 30.2569 39.4319 32.769 38.1169C41.3417 33.6291 45.6692 24.4754 43.4046 15.661C42.6619 12.7935 41.1674 9.93456 39.2512 7.72036C38.9945 7.42344 38.7836 7.16044 38.7836 7.13499C38.7836 7.10954 39.5905 6.6684 40.5715 6.16787C41.5525 5.65886 42.4052 5.17529 42.451 5.09046C42.6252 4.79353 42.5427 4.53054 42.1118 3.98759C40.1772 1.5104 36.9316 0.00880814 33.53 0.000324249C32.5948 0.000324249 32.6774 -0.0505753 31.678 1.13712C31.3204 1.5613 31.082 1.77339 30.9903 1.74794C30.917 1.73097 30.4219 1.55281 29.8901 1.36618C26.7911 0.246349 23.2429 -0.203281 19.8505 0.0936432ZM36.464 1.79884C37.7567 2.18908 39.1595 2.98654 39.9755 3.78399L40.2964 4.09788L39.5813 4.0385C37.7842 3.91124 36.2439 3.24104 34.9695 2.05334C34.6486 1.75642 34.3827 1.47646 34.3827 1.44253C34.3827 1.33224 35.6296 1.54433 36.464 1.79884ZM26.9103 3.60583C27.1304 3.80096 27.1395 3.86882 27.1395 4.75111C27.1395 5.6334 27.1487 5.70127 27.3688 5.89639C27.5613 6.08303 27.6713 6.10848 28.2398 6.10848C28.8082 6.10848 28.9182 6.13393 29.1108 6.32057C29.2575 6.44783 29.34 6.62598 29.34 6.78717C29.34 6.94836 29.2575 7.12651 29.1108 7.25376C28.8907 7.46585 28.8632 7.46585 27.3229 7.46585H25.7643L26.0393 6.95684C26.186 6.67688 26.3144 6.43934 26.3144 6.42237C26.3144 6.37148 25.0308 5.82004 24.9941 5.86246C24.9758 5.87943 24.7649 6.2527 24.5357 6.67688C24.3065 7.10954 24.0681 7.46585 24.0131 7.46585C23.9672 7.46585 23.8205 7.37253 23.7013 7.25376C23.4813 7.05864 23.4721 6.99077 23.4721 6.10848C23.4721 5.22619 23.463 5.15833 23.2429 4.9632C23.032 4.7596 22.9862 4.75111 21.6384 4.75111C20.2906 4.75111 20.2448 4.74263 20.0339 4.53902C19.8872 4.41177 19.8047 4.23362 19.8047 4.07243C19.8047 3.91124 19.8872 3.73309 20.0339 3.60583L20.254 3.39375H23.4721H26.6903L26.9103 3.60583ZM8.27982 4.20817C8.40818 4.27604 8.27982 4.42026 7.42714 5.11591C6.87703 5.56554 6.01518 6.36299 5.52925 6.872C4.52988 7.92397 4.50237 7.92397 4.41985 6.99077C4.319 5.76066 5.11666 4.64931 6.4186 4.20817C6.85869 4.06395 7.99559 4.06395 8.27982 4.20817ZM41.5342 14.4733C41.6901 14.8465 42.0843 16.3142 42.2127 16.9929L42.3319 17.6461H41.7176H41.1033L41.0391 18.2569C40.9107 19.5634 40.4615 20.7256 39.618 21.8879C39.3337 22.2866 39.1045 22.6344 39.1045 22.6684C39.1045 22.7023 39.3521 22.8974 39.6546 23.1095L40.2048 23.4828L40.6265 22.9483C41.4242 21.9388 42.1668 20.4033 42.3135 19.4701C42.4327 18.7829 42.5427 19.1647 42.5427 20.2251C42.5427 22.3545 42.1852 24.4075 41.4792 26.3757C41.0208 27.6567 40.1222 29.4722 39.9755 29.4213C39.9297 29.4128 39.4896 29.1328 39.0128 28.8105L38.1418 28.2251V26.6641V25.1116H38.6461C39.2696 25.1116 39.6088 24.8656 39.6088 24.4245C39.6088 24.1869 39.4346 23.9833 38.2152 22.8465C37.0874 21.7946 36.8399 21.5231 36.9591 21.4637C37.4542 21.2007 38.2794 20.556 38.6094 20.1742C39.2879 19.3852 39.7005 18.3587 39.7005 17.451V16.9674H40.3881H41.0758V16.2887V15.6101H38.0043H34.9237L34.7036 15.398C34.5569 15.2707 34.4744 15.0926 34.4744 14.9314C34.4744 14.7702 34.5569 14.592 34.7036 14.4648L34.9237 14.2527H38.1877H41.4425L41.5342 14.4733ZM36.354 23.0756L37.0874 23.7543H35.9414H34.7953L34.0618 23.0756L33.3283 22.3969H34.4744H35.6205L36.354 23.0756ZM32.1364 23.2453L32.6774 23.7543H31.5405H30.4036L30.9445 23.2453C31.2471 22.9653 31.513 22.7362 31.5405 22.7362C31.568 22.7362 31.8339 22.9653 32.1364 23.2453ZM14.0102 25.3407C14.1385 25.4255 14.3311 25.6122 14.4319 25.7394C14.6153 25.96 14.6245 26.1127 14.6703 28.4287L14.7161 30.8805L15.1379 31.2368C15.3763 31.4404 15.6788 31.8136 15.8255 32.0682C16.0456 32.4669 16.0914 32.6366 16.0914 33.2134C16.0914 33.8158 16.0548 33.96 15.7889 34.4605C15.468 35.0713 15.0737 35.4276 14.3952 35.733C14.0743 35.8773 13.8085 35.9197 13.2033 35.9197C12.4882 35.9282 12.3782 35.9027 11.8464 35.6397C11.2413 35.3343 10.8929 34.995 10.5353 34.3587C10.3611 34.0448 10.3244 33.8497 10.3244 33.2559C10.3244 32.3651 10.5445 31.8985 11.2504 31.2368L11.7364 30.7956V28.5051C11.7364 27.0968 11.773 26.1382 11.8372 25.9854C11.9656 25.6716 12.2681 25.3746 12.6074 25.2304C12.9741 25.0692 13.6984 25.1286 14.0102 25.3407ZM33.7409 27.0289V28.9462L33.4567 28.8953C33.3008 28.8699 32.9249 28.6747 32.6223 28.4626C32.1181 28.1148 31.3754 27.8264 30.972 27.8264C30.8161 27.8264 30.807 27.7246 30.807 26.469V25.1116H32.2739H33.7409V27.0289ZM36.6749 26.4436V27.784L36.0972 27.9197C35.7855 27.996 35.4554 28.0809 35.3729 28.1148C35.2171 28.1827 35.2079 28.0809 35.2079 26.6472V25.1116H35.9414H36.6749V26.4436Z" fill="#838383"/>
<path d="M12.4688 29.2346V32.0087L12.1571 32.3311C11.5887 32.908 11.607 33.663 12.1846 34.1975C12.7806 34.7489 13.6241 34.7489 14.22 34.1975C14.7977 33.663 14.816 32.908 14.2475 32.3311L13.9358 32.0087V29.2346V26.469H13.2023H12.4688V29.2346Z" fill="#838383"/>
<path d="M2.17239 2.01922C1.93398 2.23982 1.74142 2.46041 1.74142 2.51132C1.74142 2.55374 2.05318 2.87615 2.42913 3.22401L3.11684 3.86034L3.6395 3.36824L4.17133 2.88463L3.48362 2.2483C3.10767 1.90044 2.75923 1.61197 2.70422 1.61197C2.6492 1.61197 2.41079 1.79863 2.17239 2.01922Z" fill="#838383"/>
<path d="M0 6.78708V7.46584H0.733559H1.46712V6.78708V6.10833H0.733559H0V6.78708Z" fill="#838383"/>
<path d="M15.4035 11.5464V14.2697L14.3308 14.2357C13.038 14.1933 12.6988 14.083 11.837 13.3874C10.8009 12.5475 9.80154 12.2166 8.3254 12.2166C6.67506 12.2166 6.06076 12.4287 4.38292 13.5825L3.22768 14.3884L3.63109 14.8805C3.85114 15.1519 4.05285 15.398 4.08035 15.4234C4.09869 15.4489 4.60296 15.1265 5.18975 14.7193C6.71173 13.6673 6.84926 13.6164 8.29789 13.6164C9.70985 13.6164 9.98491 13.7013 10.9018 14.4393C11.2227 14.7023 11.6994 15.0162 11.9653 15.135C12.928 15.5676 13.2948 15.6101 16.2929 15.6101H19.071V14.9314V14.2527H17.9707H16.8705V13.574V12.8953H18.1083C19.3093 12.8953 19.3643 12.8868 19.5752 12.6832C19.7953 12.4881 19.8044 12.4372 19.8044 11.3259V10.1806H19.071H18.3375V10.8593V11.5379H17.604H16.8705V10.1806V8.82321H16.137H15.4035V11.5464Z" fill="#838383"/>
<path d="M22.7374 16.2886C22.5724 16.611 22.444 16.891 22.4715 16.9165C22.554 16.9844 23.8561 17.5698 23.8836 17.5443C23.9478 17.4764 24.4796 16.4583 24.4796 16.3904C24.4796 16.3395 23.1867 15.6947 23.0767 15.6947C23.0584 15.6947 22.9117 15.9577 22.7374 16.2886Z" fill="#838383"/>
<path d="M25.6723 17.6461V18.3248H26.4058H27.1394V17.6461V16.9673H26.4058H25.6723V17.6461Z" fill="#838383"/>
<path d="M7.4904 19.1477C6.93112 20.1996 6.92195 20.2421 6.92195 20.9038C6.92195 21.5316 6.95862 21.6503 7.27035 22.2103C7.75629 23.1095 7.73795 23.3979 7.11449 24.5772L6.61938 25.5104L7.25202 25.7903C7.60042 25.9515 7.89382 26.0618 7.92132 26.0363C7.93966 26.0194 8.19638 25.5613 8.48977 25.0268L9.03072 24.0512V23.2452C9.03072 22.4817 9.01238 22.4054 8.69148 21.803C8.4806 21.4213 8.34307 21.0395 8.34307 20.8614C8.34307 20.6662 8.51728 20.2166 8.84735 19.5973C9.13157 19.0713 9.34245 18.6302 9.33328 18.6217C9.2691 18.5708 8.1597 18.0703 8.11386 18.0703C8.08635 18.0703 7.80213 18.5538 7.4904 19.1477Z" fill="#838383"/>
<path d="M16.824 18.3418C16.5214 18.486 16.2647 18.6133 16.2464 18.6217C16.2372 18.6302 16.4481 19.0714 16.7323 19.5974C17.3466 20.7681 17.3649 20.9802 16.8973 21.8285C16.5764 22.3969 16.5489 22.4902 16.5489 23.2029C16.5489 23.9664 16.5489 23.9749 17.0899 25.0099C17.3924 25.5783 17.6675 26.0449 17.7133 26.0449C17.7775 26.0449 18.8777 25.5613 18.9603 25.4934C18.9694 25.4849 18.7585 25.0438 18.4743 24.5178C17.86 23.3471 17.8417 23.1435 18.3185 22.2442C18.6302 21.6419 18.6577 21.5316 18.6577 20.8699C18.6577 20.1573 18.6485 20.1233 18.1167 19.1053C17.8142 18.5369 17.53 18.0703 17.4749 18.0703C17.4199 18.0788 17.1265 18.1976 16.824 18.3418Z" fill="#838383"/>
<path d="M3.82364 19.8264C3.26436 20.8784 3.25519 20.9208 3.25519 21.5825C3.25519 22.2103 3.29186 22.3291 3.60359 22.889C4.08953 23.7882 4.07119 24.0767 3.44773 25.2559L2.95263 26.1891L3.58526 26.469C3.93366 26.6302 4.22706 26.7405 4.25456 26.7151C4.2729 26.6981 4.52962 26.24 4.82301 25.7055L5.36396 24.7299V23.924C5.36396 23.1604 5.34562 23.0841 5.02472 22.4818C4.81384 22.1 4.67632 21.7182 4.67632 21.5401C4.67632 21.345 4.85052 20.8953 5.18059 20.276C5.46481 19.7501 5.67569 19.3089 5.66652 19.3004C5.60234 19.2495 4.49294 18.749 4.4471 18.749C4.4196 18.749 4.13537 19.2326 3.82364 19.8264Z" fill="#838383"/>
<path d="M20.4924 19.0204C20.1898 19.1646 19.9331 19.2919 19.9148 19.3004C19.9056 19.3088 20.1165 19.75 20.4007 20.276C21.015 21.4467 21.0333 21.6588 20.5657 22.5071C20.2448 23.0755 20.2173 23.1689 20.2173 23.8815C20.2173 24.645 20.2173 24.6535 20.7583 25.6885C21.0608 26.2569 21.3359 26.7235 21.3817 26.7235C21.4459 26.7235 22.5462 26.2399 22.6287 26.172C22.6378 26.1636 22.427 25.7224 22.1427 25.1964C21.5284 24.0257 21.5101 23.8221 21.9869 22.9228C22.2986 22.3205 22.3261 22.2102 22.3261 21.5485C22.3261 20.8359 22.3169 20.8019 21.7852 19.7839C21.4826 19.2155 21.1984 18.7489 21.1434 18.7489C21.0884 18.7574 20.795 18.8762 20.4924 19.0204Z" fill="#838383"/>
<path d="M31.2197 30.261C30.8713 30.4222 30.5595 30.5749 30.5412 30.5919C30.4953 30.6259 31.0913 31.8137 31.1463 31.8137C31.1922 31.8137 32.4943 31.2113 32.5401 31.1689C32.5951 31.1264 31.9808 29.9471 31.9166 29.9471C31.8891 29.9556 31.5773 30.0913 31.2197 30.261Z" fill="#838383"/>
<path d="M23.4719 31.8984V32.5772H24.2055H24.939V31.8984V31.2197H24.2055H23.4719V31.8984Z" fill="#838383"/>
<path d="M23.0233 34.757C22.8216 34.9098 22.0055 37.0224 22.0055 37.3787C22.0055 37.7435 22.2989 37.9132 23.5643 38.3035C24.2429 38.5156 24.8939 38.6853 25.0223 38.6853C25.1873 38.6853 25.4991 38.4478 26.196 37.8114C27.1771 36.9036 27.2871 36.7169 27.0487 36.3012C26.9295 36.1061 23.7477 34.6128 23.436 34.6128C23.3168 34.6128 23.1334 34.6807 23.0233 34.757ZM24.5821 36.5727L25.1415 36.8272L24.9398 37.0309L24.738 37.226L24.2062 37.0648L23.6744 36.8951L23.7752 36.5982C23.8302 36.4454 23.9036 36.3097 23.9494 36.3097C23.9953 36.3097 24.2795 36.4285 24.5821 36.5727Z" fill="#838383"/>
<path d="M29.3386 35.9705C29.1735 36.2929 29.0452 36.5729 29.0727 36.5983C29.1552 36.6662 30.4573 37.2516 30.4848 37.2262C30.549 37.1583 31.0808 36.1402 31.0808 36.0723C31.0808 36.0214 29.7879 35.3766 29.6779 35.3766C29.6595 35.3766 29.5128 35.6396 29.3386 35.9705Z" fill="#838383"/>
</svg>
